<svg id="Layer_1" data-name="Layer 1" xmlns="http://www.w3.org/2000/svg" viewBox="0 0 1080 238.7"><defs><style>.cls-1{font-size:86.9px;font-family:Brown-Bold, Brown;font-weight:700;letter-spacing:0.23em;}.cls-1,.cls-10,.cls-7{fill:blue;}.cls-2{letter-spacing:0.2em;}.cls-3{letter-spacing:0.22em;}.cls-4{letter-spacing:0.23em;}.cls-5{letter-spacing:0.18em;}.cls-6{letter-spacing:0.18em;}.cls-7{font-size:44px;font-family:Brown-Light, Brown;font-weight:300;}.cls-8{letter-spacing:-0.02em;}.cls-9{letter-spacing:0em;}</style></defs><text class="cls-1" transform="translate(349.1 127.48)">EA<tspan class="cls-2" x="148.16" y="0">SE4</tspan><tspan class="cls-3" x="348.03" y="0">C</tspan><tspan class="cls-4" x="429.28" y="0">A</tspan><tspan class="cls-5" x="509.66" y="0">S</tspan><tspan class="cls-6" x="571.36" y="0">T</tspan></text><text class="cls-7" transform="translate(354.16 186.89)">p<tspan class="cls-8" x="25.61" y="0">r</tspan><tspan class="cls-9" x="40.35" y="0">ev</tspan><tspan x="84.35" y="0">endo seu melhor </tspan><tspan class="cls-8" x="423.67" y="0">r</tspan><tspan x="438.41" y="0">esul</tspan><tspan class="cls-8" x="514.92" y="0">t</tspan><tspan x="531.86" y="0">ado </tspan></text><path class="cls-10" d="M314.2,125.86l5.26-8.83c-24.65-41.33-67-80.39-139-80.39S68.28,89.39,68.28,89.39c27,47.14,67.62,67.85,109.38,68.74.71,0,1.43.05,2.14.05h.67c48.45,0,78.67-27.76,78.67-27.76,5.74,6.32,13.08,20.11,13.08,20.11s-30.68,27.89-91.75,27.89c-84.74,0-126-70.81-126-70.81l-5.73,9.25c17.37,28.78,57.73,80.2,131.72,80.2s115.42-46.27,115.42-46.27c-22.08-47.53-65.34-75.42-115.42-75.42s-77.37,26.55-77.37,26.55c-4.78-5.52-11-16.81-11-16.81S126,55.29,180.47,55.29C276,55.29,314.2,125.86,314.2,125.86ZM179.1,94c.62,0,1.24,0,1.87,0a22.38,22.38,0,1,1-1.87,0Zm38.82,38.85a41.31,41.31,0,0,0,.1-31.69,122.67,122.67,0,0,1,27.46,15.71S235.13,126.08,217.92,132.83Zm-77-29.93a41.29,41.29,0,0,0-.11,27.6,128.54,128.54,0,0,1-22.88-13.65A98.89,98.89,0,0,1,140.91,102.9Z"/></svg>