<svg width="368" height="309" viewBox="0 0 368 309" fill="none" xmlns="http://www.w3.org/2000/svg">
<path d="M338.793 303.049L333.299 303.049L330.685 281.805H338.794L338.793 303.049Z" fill="#9E616A"/>
<path d="M340.194 308.388L322.479 308.387V308.163C322.479 306.33 323.205 304.571 324.498 303.275C325.791 301.979 327.545 301.251 329.374 301.25H329.374L340.194 301.251L340.194 308.388Z" fill="#2F2E41"/>
<path d="M317.73 303.049L312.236 303.049L309.622 281.805H317.731L317.73 303.049Z" fill="#9E616A"/>
<path d="M319.131 308.388L301.416 308.387V308.163C301.416 306.33 302.143 304.571 303.436 303.275C304.729 301.979 306.483 301.251 308.311 301.25H308.312L319.132 301.251L319.131 308.388Z" fill="#2F2E41"/>
<path d="M80.3662 307.566V136.934C80.3662 135.883 80.7827 134.875 81.5239 134.132C82.2652 133.389 83.2705 132.972 84.3188 132.972H101.958C103.006 132.972 104.011 133.389 104.753 134.132C105.494 134.875 105.91 135.883 105.91 136.934V308.011L80.3662 307.566Z" fill="#3F3D56"/>
<path d="M138.625 308.101V172.425C138.625 171.374 139.041 170.367 139.782 169.623C140.524 168.88 141.529 168.463 142.577 168.463H160.216C161.265 168.463 162.27 168.88 163.011 169.623C163.752 170.367 164.169 171.374 164.169 172.425V307.809L138.625 308.101Z" fill="#3F3D56"/>
<path d="M35.1033 146.907C34.8437 146.907 34.5896 146.832 34.3718 146.69C34.154 146.548 33.9818 146.346 33.876 146.109C33.7702 145.871 33.7353 145.608 33.7755 145.35C33.8157 145.093 33.9294 144.853 34.1027 144.66L93.0807 78.7128L151.123 111.387L207.264 42.4014L265.515 32.1171C265.652 32.2295 265.765 32.3678 265.848 32.5241C265.931 32.6803 265.983 32.8514 266 33.0277C266.017 33.2039 265.999 33.3819 265.948 33.5513C265.896 33.7207 265.812 33.8782 265.7 34.0149C265.588 34.1517 265.45 34.2649 265.294 34.3481C265.138 34.4313 264.967 34.483 264.791 34.5C264.615 34.517 264.438 34.4992 264.269 34.4474C264.1 34.3957 248.116 18.5081 263.807 34.1984L208 46.5L152.118 115.038L93.6437 82.1212L36.1047 146.459C35.9788 146.6 35.8244 146.713 35.6518 146.79C35.4793 146.868 35.2923 146.907 35.1033 146.907Z" fill="#3F3D56"/>
<path d="M34.8798 158.139C41.8098 158.139 47.4277 152.507 47.4277 145.559C47.4277 138.612 41.8098 132.98 34.8798 132.98C27.9497 132.98 22.3318 138.612 22.3318 145.559C22.3318 152.507 27.9497 158.139 34.8798 158.139Z" fill="#CCCCCC"/>
<path d="M93.1383 92.9962C100.068 92.9962 105.686 87.3643 105.686 80.417C105.686 73.4697 100.068 67.8378 93.1383 67.8378C86.2083 67.8378 80.5903 73.4697 80.5903 80.417C80.5903 87.3643 86.2083 92.9962 93.1383 92.9962Z" fill="#CCCCCC"/>
<path d="M151.397 125.792C158.327 125.792 163.945 120.16 163.945 113.213C163.945 106.266 158.327 100.634 151.397 100.634C144.467 100.634 138.849 106.266 138.849 113.213C138.849 120.16 144.467 125.792 151.397 125.792Z" fill="#CCCCCC"/>
<path d="M207.548 57.1584C214.478 57.1584 220.096 51.5265 220.096 44.5792C220.096 37.6319 214.478 32 207.548 32C200.618 32 195 37.6319 195 44.5792C195 51.5265 200.618 57.1584 207.548 57.1584Z" fill="#0000FF"/>
<path d="M321.691 118.844C328.621 118.844 334.239 113.212 334.239 106.265C334.239 99.3178 328.621 93.6859 321.691 93.6859C314.761 93.6859 309.143 99.3178 309.143 106.265C309.143 113.212 314.761 118.844 321.691 118.844Z" fill="#0000FF"/>
<path d="M317.254 204.257C321.951 204.825 333.96 200.53 334.611 207.064C340.793 225.306 340.609 295.233 340.609 295.233L331.199 295.683C331.199 295.683 323.678 240.121 320.122 228.234C318.338 242.682 318.651 297.929 318.651 297.929L310.136 298.378C310.136 298.378 302.498 251.333 302.455 237.525C301.526 227.41 303.803 212.422 302.829 202.645C307.485 204.124 312.387 204.672 317.254 204.257L317.254 204.257Z" fill="#3F3D56"/>
<path d="M255 307.372V67.569C255 64.4936 256.801 62 259.023 62H276.977C279.199 62 281 64.493 281 67.569V308L255 307.372Z" fill="#0000FF"/>
<path d="M301.278 151.335C299.394 147.475 297.093 143.833 294.417 140.476C293.857 139.821 293.348 139.124 292.893 138.392C291.93 136.716 291.643 134.748 291.033 132.915C289.33 127.776 285.082 123.647 284.047 118.333C283.67 116.401 280.49 122.016 281.327 124.411C282.819 128.746 283.012 133.338 284.912 137.525C286.812 141.712 289.043 145.728 290.684 150.01C291.616 152.44 292.36 154.952 293.727 157.198C295.093 159.444 297.227 161.326 299.803 161.663C299.786 160.035 300.033 158.414 300.534 156.865C301.094 155.095 302.089 153.011 301.278 151.335Z" fill="#9E616A"/>
<path d="M329.471 154.246C329.355 151.07 329.85 147.9 330.927 144.911C331.339 143.765 331.823 142.601 331.783 141.384C331.725 140.252 331.187 139.214 330.699 138.19C329.013 134.663 327.83 130.925 326.665 127.196L324.425 120.166C323.694 119.628 327.96 119.442 328.87 120.705C331.846 124.847 334.1 129.604 336.457 134.128C337.058 135.206 337.571 136.332 337.99 137.493C338.565 139.376 338.838 141.338 338.796 143.307C338.796 146.986 338.312 150.652 337.811 154.3C337.492 156.587 337.076 159.076 335.35 160.59C333.558 158.289 331.756 156.043 329.471 154.246Z" fill="#9E616A"/>
<path d="M317.622 150.606C322.757 150.606 326.921 146.433 326.921 141.284C326.921 136.136 322.757 131.962 317.622 131.962C312.486 131.962 308.323 136.136 308.323 141.284C308.323 146.433 312.486 150.606 317.622 150.606Z" fill="#9E616A"/>
<path d="M310.062 131.984C309.958 131.701 309.934 131.394 309.994 131.099C310.055 130.803 310.196 130.53 310.403 130.311C310.635 130.128 310.943 130.059 311.192 129.884C311.546 129.586 311.836 129.218 312.043 128.804C312.679 127.913 313.608 127.276 314.667 127.007C315.726 126.737 316.846 126.853 317.828 127.332C319.365 128.139 320.293 129.753 321.66 130.84C322.354 131.404 323.158 131.822 323.856 132.385C325.255 133.596 326.249 135.207 326.704 137.002C327.157 138.785 327.422 140.611 327.494 142.449C327.566 143.001 327.545 143.561 327.43 144.105C327.289 144.562 327.078 144.994 326.804 145.386C325.4 147.519 323.548 149.457 321.228 150.558C318.908 151.659 316.086 151.838 313.797 150.686C313.567 150.593 313.369 150.434 313.227 150.229C313.097 149.918 313.066 149.574 313.138 149.244C313.262 147.94 313.005 146.627 312.397 145.467C311.971 144.614 311.333 143.88 310.992 142.996C310.676 142.008 310.54 140.97 310.592 139.933C310.552 137.245 310.734 134.57 310.062 131.984Z" fill="#2D293D"/>
<path d="M22.1072 307.764V212.817C22.1072 211.6 23.8769 210.612 26.0598 210.612H43.6987C45.8816 210.612 47.6513 211.601 47.6513 212.817V308.011L22.1072 307.764Z" fill="#3F3D56"/>
<path d="M367.552 309H0.448142C0.329287 309 0.2153 308.953 0.131257 308.868C0.0472145 308.784 0 308.67 0 308.551C0 308.432 0.0472145 308.317 0.131257 308.233C0.2153 308.149 0.329287 308.101 0.448142 308.101H367.552C367.671 308.101 367.785 308.149 367.869 308.233C367.953 308.317 368 308.432 368 308.551C368 308.67 367.953 308.784 367.869 308.868C367.785 308.953 367.671 309 367.552 309H367.552Z" fill="#E6E6E6"/>
<path d="M197 307.456V98.8444C197 96.169 198.732 94 200.868 94H218.132C220.268 94 222 96.169 222 98.8444V308L197 307.456Z" fill="#0000FF"/>
<path d="M281.067 123.261C283.294 123.261 285.1 121.45 285.1 119.217C285.1 116.984 283.294 115.174 281.067 115.174C278.839 115.174 277.034 116.984 277.034 119.217C277.034 121.45 278.839 123.261 281.067 123.261Z" fill="#A0616A"/>
<path d="M325.881 121.464C328.109 121.464 329.914 119.653 329.914 117.42C329.914 115.187 328.109 113.377 325.881 113.377C323.654 113.377 321.848 115.187 321.848 117.42C321.848 119.653 323.654 121.464 325.881 121.464Z" fill="#A0616A"/>
<path d="M335.682 167.472C336.075 167.111 339.284 148.301 339.265 147.877C339.215 145.559 332.162 142.913 330.75 143.834C329.418 144.703 327.099 154.672 325.607 156.487L324.028 153.717H311.48L310.72 155.133C309.073 154.139 307.592 153.222 307.064 152.919C306.882 152.795 306.685 152.698 306.476 152.629C305.172 152.337 303.948 151.76 302.891 150.94C301.86 150.145 297.077 141.816 295.795 142.037C294.348 142.279 289.465 146.511 289.521 150.572C290.136 150.559 298.132 166.587 298.244 167.185C298.858 169.71 300.885 206.531 301.54 208.247C304.554 207.955 302.174 207.434 305.091 208.247C308.233 209.123 311.549 208.175 314.789 207.825C316.138 207.691 317.494 207.631 318.849 207.645C323.779 207.667 330.815 207.941 335.588 209.168C335.614 206.032 332.867 199.248 331.85 196.288C331.717 195.403 331.721 194.503 331.864 193.619C331.994 192.536 334.618 168.669 335.682 167.472Z" fill="#E6E6E6"/>
</svg>
