<svg width="1400" height="105" viewBox="0 0 1400 105" fill="none" xmlns="http://www.w3.org/2000/svg">
<rect x="-78" width="1554.28" height="104.78" fill="white"/>
<path d="M-24 39H1476.28C1462.55 15.6628 1437.17 0 1408.14 0C1395.97 0 1384.44 2.75299 1374.14 7.67041C1363.84 2.75299 1352.31 0 1340.14 0C1327.77 0 1316.06 2.84302 1305.64 7.91132C1295.22 2.84302 1283.51 0 1271.14 0C1256.75 0 1243.26 3.84705 1231.64 10.5687C1220.02 3.84705 1206.53 0 1192.14 0C1179.97 0 1168.44 2.75299 1158.14 7.67041C1147.84 2.75299 1136.31 0 1124.14 0C1111.77 0 1100.06 2.84302 1089.64 7.91132C1079.22 2.84302 1067.51 0 1055.14 0C1040.75 0 1027.26 3.84705 1015.64 10.5687C1004.02 3.84705 990.529 0 976.14 0C963.967 0 952.437 2.75299 942.14 7.67041C931.842 2.75299 920.312 0 908.14 0C895.769 0 884.064 2.84302 873.64 7.91132C863.215 2.84302 851.509 0 839.14 0C824.75 0 811.259 3.84705 799.64 10.5687C788.02 3.84705 774.529 0 760.14 0C747.967 0 736.437 2.75299 726.14 7.67041C715.842 2.75299 704.312 0 692.14 0C679.769 0 668.064 2.84302 657.64 7.91132C647.215 2.84302 635.509 0 623.14 0C608.75 0 595.259 3.84705 583.64 10.5687C572.02 3.84705 558.529 0 544.14 0C531.967 0 520.437 2.75299 510.14 7.67041C499.842 2.75299 488.312 0 476.14 0C463.77 0 452.064 2.84308 441.64 7.91138C431.215 2.84308 419.51 0 407.14 0C392.75 0 379.259 3.84705 367.64 10.5688C356.02 3.84705 342.529 0 328.14 0C315.967 0 304.437 2.75305 294.14 7.67047C283.842 2.75305 272.312 0 260.14 0C247.77 0 236.064 2.84308 225.64 7.91138C215.215 2.84308 203.51 0 191.14 0C176.75 0 163.259 3.84705 151.64 10.5688C140.02 3.84705 126.529 0 112.14 0C99.9669 0 88.4374 2.75305 78.1395 7.67047C67.8417 2.75305 56.3121 0 44.1395 0C15.1052 0 -10.2708 15.6628 -24 39Z" fill="url(#paint0_linear)"/>
<path d="M-78 64H1422.28C1408.55 40.6628 1383.17 25 1354.14 25C1341.97 25 1330.44 27.753 1320.14 32.6704C1309.84 27.753 1298.31 25 1286.14 25C1273.77 25 1262.06 27.843 1251.64 32.9113C1241.22 27.843 1229.51 25 1217.14 25C1202.75 25 1189.26 28.847 1177.64 35.5687C1166.02 28.847 1152.53 25 1138.14 25C1125.97 25 1114.44 27.753 1104.14 32.6704C1093.84 27.753 1082.31 25 1070.14 25C1057.77 25 1046.06 27.843 1035.64 32.9113C1025.22 27.843 1013.51 25 1001.14 25C986.75 25 973.259 28.847 961.64 35.5687C950.02 28.847 936.529 25 922.14 25C909.967 25 898.437 27.753 888.14 32.6704C877.842 27.753 866.312 25 854.14 25C841.769 25 830.064 27.843 819.64 32.9113C809.215 27.843 797.509 25 785.14 25C770.75 25 757.259 28.847 745.64 35.5687C734.02 28.847 720.529 25 706.14 25C693.967 25 682.437 27.753 672.14 32.6704C661.842 27.753 650.312 25 638.14 25C625.769 25 614.064 27.843 603.64 32.9113C593.215 27.843 581.509 25 569.14 25C554.75 25 541.259 28.847 529.64 35.5687C518.02 28.847 504.529 25 490.14 25C477.967 25 466.437 27.753 456.14 32.6704C445.842 27.753 434.312 25 422.14 25C409.77 25 398.064 27.8431 387.64 32.9114C377.215 27.8431 365.51 25 353.14 25C338.75 25 325.259 28.847 313.64 35.5688C302.02 28.847 288.529 25 274.14 25C261.967 25 250.437 27.7531 240.14 32.6705C229.842 27.7531 218.312 25 206.14 25C193.77 25 182.064 27.8431 171.64 32.9114C161.215 27.8431 149.51 25 137.14 25C122.75 25 109.259 28.847 97.6395 35.5688C86.0197 28.847 72.5289 25 58.1395 25C45.9669 25 34.4374 27.7531 24.1395 32.6705C13.8417 27.7531 2.31213 25 -9.86047 25C-38.8948 25 -64.2708 40.6628 -78 64Z" fill="url(#paint1_linear)"/>
<path d="M-24 104.785H1476C1462.27 67.2151 1436.9 42 1407.87 42C1395.7 42 1384.18 46.4319 1373.88 54.3483C1363.58 46.4319 1352.06 42 1339.89 42C1327.52 42 1315.81 46.5769 1305.39 54.7362C1294.97 46.5769 1283.27 42 1270.9 42C1256.51 42 1243.02 48.1932 1231.41 59.0142C1219.79 48.1932 1206.3 42 1191.91 42C1179.74 42 1168.22 46.4319 1157.92 54.3483C1147.62 46.4319 1136.1 42 1123.93 42C1111.56 42 1099.85 46.5769 1089.43 54.7362C1079.01 46.5769 1067.31 42 1054.94 42C1040.55 42 1027.06 48.1932 1015.45 59.0142C1003.83 48.1932 990.34 42 975.953 42C963.783 42 952.256 46.4319 941.96 54.3483C931.664 46.4319 920.136 42 907.966 42C895.598 42 883.895 46.5769 873.472 54.7362C863.05 46.5769 851.346 42 838.979 42C824.592 42 811.104 48.1932 799.486 59.0142C787.869 48.1932 774.38 42 759.994 42C747.823 42 736.296 46.4319 726 54.3483C715.704 46.4319 704.177 42 692.006 42C679.638 42 667.935 46.5769 657.513 54.7362C647.091 46.5769 635.387 42 623.019 42C608.632 42 595.144 48.1932 583.526 59.0142C571.909 48.1932 558.421 42 544.034 42C531.863 42 520.336 46.4319 510.04 54.3483C499.744 46.4319 488.217 42 476.046 42C463.679 42 451.975 46.577 441.553 54.7363C431.131 46.577 419.427 42 407.059 42C392.673 42 379.184 48.1932 367.567 59.0143C355.949 48.1932 342.461 42 328.074 42C315.904 42 304.376 46.432 294.08 54.3484C283.784 46.432 272.257 42 260.087 42C247.719 42 236.015 46.577 225.593 54.7363C215.171 46.577 203.467 42 191.099 42C176.713 42 163.225 48.1932 151.607 59.0143C139.989 48.1932 126.501 42 112.114 42C99.9439 42 88.4165 46.432 78.1205 54.3484C67.8246 46.432 56.2972 42 44.1268 42C15.0979 42 -10.2733 67.2151 -24 104.785Z" fill="url(#paint2_linear)"/>
<defs>
<linearGradient id="paint0_linear" x1="701.14" y1="39" x2="701.14" y2="1141" gradientUnits="userSpaceOnUse">
<stop stop-color="#2885A5"/>
<stop offset="1" stop-color="#03031D"/>
</linearGradient>
<linearGradient id="paint1_linear" x1="647.14" y1="64" x2="647.14" y2="1166" gradientUnits="userSpaceOnUse">
<stop stop-color="#0F4C61"/>
<stop offset="1" stop-color="#03031D"/>
</linearGradient>
<linearGradient id="paint2_linear" x1="726" y1="42" x2="726" y2="1816.07" gradientUnits="userSpaceOnUse">
<stop stop-color="#023546"/>
<stop offset="1" stop-color="#03031D"/>
</linearGradient>
</defs>
</svg>
