<svg width="439" height="307" viewBox="0 0 439 307" fill="none" xmlns="http://www.w3.org/2000/svg">
<path d="M287.615 158.849L289.615 157.748L290.205 157.421C285.826 156.782 281.831 154.88 278.877 152.027C275.923 149.175 274.187 145.543 273.954 141.729C273.721 137.915 275.006 134.146 277.596 131.043C280.186 127.941 283.928 125.689 288.205 124.659L288.105 131.59L292.535 124.049C295.101 123.946 297.666 124.279 300.082 125.028C302.499 125.777 304.72 126.929 306.619 128.416C308.518 129.904 310.058 131.699 311.15 133.698C312.242 135.697 312.866 137.862 312.985 140.069C312.985 140.395 312.985 140.705 312.985 141.023C314.547 139.563 315.848 137.911 316.845 136.122C318.725 132.519 318.755 128.451 318.615 123.498C318.315 113.695 317.825 103.815 317.185 93.9609C312.56 93.5209 308.27 91.676 305.085 88.7582C301.901 85.8404 300.032 82.0412 299.815 78.0442C299.785 77.5372 299.785 77.0292 299.815 76.5222C299.815 76.3932 299.815 76.2642 299.815 76.1438C299.815 75.6537 299.905 75.1721 299.995 74.6906C299.991 74.6133 299.991 74.5358 299.995 74.4585C300.065 74.0543 300.165 73.6587 300.275 73.2632C300.275 73.117 300.365 72.9708 300.405 72.8246C300.545 72.3947 300.695 71.9648 300.875 71.552C300.935 71.4144 300.995 71.2854 301.065 71.1478C301.205 70.8383 301.355 70.5373 301.515 70.2363C301.595 70.0816 301.675 69.9182 301.765 69.7634L301.835 69.643C303.904 66.1331 307.338 63.3577 311.54 61.7993C315.742 60.2409 320.447 59.998 324.835 61.1129L324.705 70.1332L329.085 62.6865C331.923 64.0922 334.304 66.0889 336.01 68.4931C337.715 70.8973 338.69 73.6318 338.845 76.4448C338.926 77.9023 338.782 79.3625 338.415 80.7873C338.415 80.9077 338.335 81.0194 338.305 81.1398C338.275 81.2602 338.175 81.587 338.105 81.802C338.035 82.0169 337.915 82.3609 337.805 82.6618C337.695 82.9628 337.645 83.0746 337.555 83.281C337.465 83.4874 337.265 83.8657 337.115 84.1409C337.025 84.3043 336.945 84.4762 336.855 84.6482C336.605 85.0782 336.335 85.5081 336.045 85.9208C335.945 86.067 335.825 86.2046 335.725 86.3422C335.515 86.6174 335.305 86.9012 335.075 87.2021C334.845 87.5031 334.785 87.5289 334.635 87.6837C334.485 87.8384 334.205 88.148 333.975 88.3716C333.745 88.5951 333.645 88.6811 333.475 88.8359C333.305 88.9907 332.995 89.2658 332.735 89.4722L332.225 89.885L331.335 90.5213L330.875 90.8309C330.405 91.1232 329.935 91.3984 329.435 91.6908L329.155 91.8284C328.744 92.0447 328.32 92.2427 327.885 92.4216L327.325 92.6366C326.975 92.7742 326.615 92.9118 326.245 93.0236L325.605 93.2214C325.245 93.3332 324.885 93.4277 324.515 93.5137L323.855 93.6599C323.455 93.7459 323.045 93.8147 322.635 93.8749H322.555C322.822 98.0368 323.062 102.196 323.275 106.352C324.44 104.293 326.082 102.46 328.101 100.966C330.119 99.4724 332.472 98.3491 335.013 97.6654C337.555 96.9817 340.232 96.752 342.881 96.9904C345.529 97.2287 348.093 97.9301 350.415 99.0515L346.965 107.203L354.075 101.33C357.888 104.327 360.161 108.502 360.395 112.939C360.484 114.496 360.316 116.057 359.895 117.574C359.01 120.864 356.993 123.849 354.106 126.14C351.219 128.43 347.597 129.92 343.712 130.414C339.826 130.909 335.857 130.386 332.323 128.913C328.788 127.44 325.851 125.086 323.895 122.157C323.895 122.578 323.895 123.017 323.895 123.421C324.025 127.789 324.185 133.224 321.655 138.039C319.846 141.168 317.408 143.997 314.455 146.397C312.675 147.954 310.835 149.459 308.955 150.92C307.095 153.06 304.673 154.789 301.885 155.968C298.785 158.02 295.579 159.944 292.265 161.738L290.535 162.821C288.675 163.819 286.765 164.834 284.895 165.891L285.895 165.822C290.039 165.656 294.137 166.627 297.598 168.594C301.058 170.562 303.701 173.425 305.145 176.769L292.925 185.368L306.375 182.685C306.363 185.523 305.517 188.312 303.917 190.793C302.316 193.275 300.012 195.368 297.219 196.88C294.426 198.391 291.234 199.271 287.94 199.438C284.646 199.606 281.356 199.055 278.375 197.836C278.685 198.154 278.985 198.481 279.285 198.808L281.065 200.717C289.065 209.385 291.235 217.605 287.295 223.874L282.505 221.647C286.335 215.542 280.575 207.734 276.795 203.589C276.225 202.961 275.635 202.334 275.045 201.706C269.965 196.28 264.205 190.123 264.345 182.573C264.445 171.188 277.295 164.343 287.615 158.849Z" fill="#F1F1F1" fill-opacity="0.05"/>
<path d="M190.965 147.386L187.895 145.735C187.595 145.58 187.305 145.417 187.015 145.254C193.566 144.288 199.54 141.436 203.956 137.165C208.372 132.894 210.968 127.459 211.317 121.752C211.666 116.045 209.747 110.405 205.876 105.76C202.005 101.114 196.412 97.7388 190.015 96.188L190.165 106.567L183.535 95.2765H183.455C179.613 95.1227 175.773 95.6213 172.154 96.7438C168.536 97.8663 165.21 99.5907 162.366 101.818C159.523 104.046 157.218 106.734 155.582 109.728C153.947 112.722 153.014 115.963 152.835 119.268C152.835 119.749 152.835 120.222 152.835 120.695C150.493 118.504 148.542 116.026 147.045 113.343C144.235 107.96 144.185 101.863 144.405 94.4252C144.845 79.7381 145.585 64.9393 146.545 50.1921C153.467 49.5297 159.887 46.7667 164.653 42.3993C169.418 38.032 172.217 32.3465 172.545 26.3644C172.545 25.5905 172.545 24.8337 172.545 24.077V23.5095C172.485 22.7786 172.405 22.0563 172.275 21.3426C172.275 21.2222 172.275 21.1104 172.205 20.99C172.085 20.3881 171.935 19.7948 171.765 19.2014C171.705 18.9779 171.645 18.7629 171.575 18.5393C171.365 17.8944 171.145 17.2666 170.875 16.6389C170.795 16.4326 170.695 16.2348 170.595 16.0284C170.385 15.5641 170.165 15.1169 169.925 14.6698C169.795 14.429 169.675 14.1968 169.545 13.9647C169.508 13.9062 169.474 13.8459 169.445 13.7841C167.103 9.8134 163.579 6.44791 159.231 4.03089C154.883 1.61387 149.867 0.231815 144.695 0.0257124C141.44 -0.100181 138.183 0.236845 135.055 1.0232L135.245 14.5322L128.695 3.35354C123.3 6.00061 119.03 10.0625 116.511 14.9453C113.992 19.8281 113.356 25.2758 114.695 30.4919C114.695 30.6639 114.805 30.8358 114.855 31.0164C114.945 31.3518 115.045 31.6785 115.145 32.0053C115.245 32.332 115.445 32.8652 115.605 33.2521C115.765 33.6391 115.845 33.8713 115.985 34.1722C116.175 34.6194 116.405 35.0321 116.635 35.4879C116.765 35.7458 116.885 36.0038 117.025 36.2532C117.395 36.8981 117.795 37.5344 118.235 38.1535C118.385 38.3771 118.555 38.5835 118.715 38.7899C119.035 39.2112 119.345 39.6498 119.715 40.0281C119.925 40.2775 120.155 40.5097 120.375 40.7504C120.595 40.9912 121.025 41.4469 121.375 41.7823L122.115 42.4788C122.475 42.8056 122.845 43.1238 123.225 43.4333L123.995 44.0438C124.425 44.3706 124.875 44.6888 125.335 44.9897C125.565 45.1445 125.785 45.3079 126.025 45.4627C126.715 45.9012 127.425 46.3226 128.165 46.7009C128.305 46.7783 128.455 46.8385 128.595 46.9073C129.215 47.2169 129.845 47.5178 130.485 47.7672L131.335 48.094C131.865 48.3003 132.395 48.4981 132.945 48.6701C133.265 48.7819 133.585 48.8765 133.945 48.9711C134.485 49.1258 135.035 49.272 135.585 49.401L136.585 49.6246C137.195 49.745 137.805 49.8482 138.415 49.9427H138.535C138.122 56.1684 137.762 62.394 137.455 68.6197C135.709 65.5367 133.248 62.7933 130.224 60.5576C127.2 58.3219 123.677 56.6411 119.87 55.6185C116.063 54.5958 112.054 54.2529 108.088 54.6106C104.122 54.9684 100.282 56.0194 96.8052 57.699L101.985 69.8924L91.3352 61.1042C88.5064 63.3251 86.2147 66.0041 84.5914 68.9876C82.9681 71.9711 82.0452 75.2007 81.8752 78.4913C81.7396 80.8229 81.9888 83.1592 82.6152 85.4307C83.9475 90.3467 86.968 94.8046 91.2844 98.2256C95.6008 101.647 101.014 103.872 106.82 104.614C112.627 105.356 118.558 104.579 123.845 102.385C129.131 100.191 133.528 96.6805 136.465 92.3099C136.465 92.9462 136.465 93.5825 136.395 94.2102C136.205 100.754 135.955 108.889 139.745 116.155C142.315 121.082 146.455 125.072 150.535 128.658C153.202 130.997 155.949 133.255 158.775 135.434C161.551 138.641 165.174 141.235 169.345 143.001C174.012 146.068 178.818 148.934 183.765 151.6L186.865 153.251C189.645 154.738 192.505 156.269 195.305 157.851C194.815 157.851 194.305 157.765 193.825 157.748C187.619 157.496 181.481 158.949 176.298 161.895C171.115 164.841 167.157 169.129 164.995 174.138L183.285 186.942L163.155 182.934C163.165 187.193 164.428 191.38 166.828 195.105C169.229 198.83 172.687 201.971 176.88 204.236C181.074 206.501 185.867 207.816 190.811 208.057C195.755 208.299 200.69 207.46 205.155 205.618C204.695 206.1 204.245 206.582 203.795 207.072C202.895 208.035 201.995 208.989 201.125 209.935C189.215 222.911 185.905 235.216 191.795 244.606L198.975 241.278C193.235 232.138 201.865 220.443 207.525 214.286C208.375 213.349 209.255 212.412 210.145 211.466C217.755 203.34 226.375 194.122 226.145 182.823C225.655 165.874 206.425 155.65 190.965 147.386Z" fill="#F1F1F1" fill-opacity="0.05"/>
<path d="M42.6153 277.377C42.6153 277.377 8.00527 269.5 1.48528 270.076C-5.03472 270.653 11.3753 243.127 22.3053 246.481C33.2353 249.834 47.8253 258.674 56.1553 246.197C64.4853 233.72 69.1552 227.004 79.3252 227.675C89.4952 228.346 103.535 222.301 113.685 227.675C123.835 233.049 130.955 239.662 144.975 239.378C158.995 239.094 172.265 212.231 183.195 222.971C194.125 233.711 207.195 243.557 217.455 239.98C227.715 236.403 239.455 241.777 248.805 247.822C258.155 253.867 274.575 251.185 280.805 246.481C287.035 241.777 291.745 238.424 305.025 239.094C318.305 239.765 360.475 247.822 376.095 257.9C391.715 267.978 355.785 280.731 338.605 280.731C321.425 280.731 318.295 284.763 303.455 290.808C288.615 296.854 264.405 287.446 247.225 297.524C230.045 307.602 208.175 292.15 178.495 297.524C148.815 302.899 155.065 310.285 137.875 304.911C120.685 299.536 126.945 297.524 101.955 296.183C76.9652 294.841 49.6253 299.536 47.2753 290.808C44.9253 282.081 29.2752 280.06 19.9452 277.377C10.6152 274.694 42.6153 277.377 42.6153 277.377Z" fill="#030922"/>
<path d="M329.255 184.525L315.855 219.841L315.275 221.381L292.845 280.507L254.445 302.822L67.9753 235.397L85.6454 173.949L86.5854 170.716L96.0454 137.824L96.0654 137.747L153.465 131.573L329.255 184.525Z" fill="#866B2D"/>
<path opacity="0.1" d="M329.255 184.525L292.845 280.507L254.445 302.822L289.695 198.077L96.0452 137.824L96.0652 137.747L153.465 131.573L329.255 184.525Z" fill="black"/>
<path opacity="0.1" d="M137.885 144.412L134.795 142.795L165.775 140L298.495 180.347L294.755 182.032L163.825 142.331L137.885 144.412Z" fill="black"/>
<path opacity="0.1" d="M315.855 219.841L277.095 235.517L86.5853 170.716L85.6453 173.949L276.325 237.822L315.275 221.381" fill="black"/>
<path d="M109.594 161.024C110.687 157.999 108.494 154.725 104.696 153.711C100.899 152.697 96.9346 154.327 95.8422 157.352C94.7498 160.377 96.9428 163.652 100.74 164.666C104.538 165.68 108.502 164.049 109.594 161.024Z" fill="#3F3D56"/>
<path d="M277.505 216.93C278.597 213.904 276.404 210.63 272.607 209.616C268.809 208.602 264.845 210.232 263.753 213.258C262.66 216.283 264.853 219.557 268.651 220.571C272.449 221.585 276.413 219.955 277.505 216.93Z" fill="#3F3D56"/>
<path d="M250.969 286.361C252.062 283.336 249.869 280.062 246.071 279.048C242.273 278.034 238.309 279.664 237.217 282.689C236.125 285.715 238.318 288.989 242.115 290.003C245.913 291.017 249.877 289.387 250.969 286.361Z" fill="#3F3D56"/>
<path d="M89.0513 228.106C90.1437 225.081 87.9507 221.807 84.1531 220.793C80.3555 219.779 76.3914 221.409 75.299 224.434C74.2066 227.459 76.3996 230.734 80.1972 231.748C83.9948 232.762 87.9589 231.131 89.0513 228.106Z" fill="#3F3D56"/>
<path d="M118.755 141.358C118.355 142.476 115.145 141.358 111.065 140.258C106.985 139.157 103.805 137.953 104.205 136.818C104.605 135.683 108.445 135.099 112.525 136.191C116.605 137.283 119.165 140.241 118.755 141.358Z" fill="#3F3D56"/>
<path d="M139.297 137.33C139.7 136.214 137.025 134.508 133.323 133.519C129.62 132.531 126.292 132.634 125.889 133.749C125.486 134.865 128.161 136.571 131.864 137.56C135.566 138.548 138.894 138.445 139.297 137.33Z" fill="#3F3D56"/>
<path d="M205.115 168.549C204.715 169.667 200.705 168.635 196.815 167.594C192.925 166.554 189.895 165.393 190.295 164.275C190.695 163.157 194.385 162.555 198.295 163.561C202.205 164.567 205.535 167.414 205.115 168.549Z" fill="#3F3D56"/>
<path d="M288.075 194.165C287.625 195.42 283.365 194.328 279.235 193.228C275.105 192.127 271.895 190.863 272.345 189.607C272.795 188.352 276.745 187.586 280.875 188.687C285.005 189.788 288.535 192.909 288.075 194.165Z" fill="#3F3D56"/>
<path d="M312.335 191.155C311.875 192.411 307.625 191.319 303.495 190.218C299.365 189.117 296.145 187.853 296.605 186.598C297.065 185.342 301.005 184.577 305.135 185.678C309.265 186.778 312.785 189.9 312.335 191.155Z" fill="#3F3D56"/>
<path d="M324.295 185.024C323.835 186.279 320.295 185.385 316.915 184.474C313.535 183.562 310.915 182.461 311.325 181.206C311.735 179.951 315.145 179.022 318.555 179.933C321.965 180.845 324.745 183.768 324.295 185.024Z" fill="#3F3D56"/>
<path d="M244.185 159.898C243.825 160.895 240.185 159.975 236.725 159.038C233.265 158.101 230.495 157.051 230.865 156.054C231.235 155.056 234.535 154.48 238.035 155.409C241.535 156.338 244.535 158.892 244.185 159.898Z" fill="#3F3D56"/>
<path d="M166.329 136.325C166.731 135.209 164.467 133.613 161.271 132.76C158.074 131.906 155.157 132.119 154.754 133.234C154.351 134.35 156.615 135.946 159.812 136.8C163.008 137.653 165.926 137.44 166.329 136.325Z" fill="#3F3D56"/>
<path opacity="0.1" d="M202.535 202.299C202.962 201.118 202.907 199.847 202.379 198.697C201.852 197.546 200.884 196.584 199.635 195.971C200.23 195.389 200.677 194.706 200.945 193.967C201.27 193.069 201.318 192.115 201.085 191.196C200.852 190.278 200.347 189.427 199.617 188.727C198.888 188.027 197.96 187.502 196.923 187.203C195.887 186.903 194.778 186.84 193.705 187.019C194.127 185.771 194.014 184.434 193.388 183.251C192.762 182.068 191.663 181.118 190.291 180.572C188.92 180.026 187.366 179.92 185.912 180.275C184.458 180.63 183.199 181.421 182.365 182.505C181.552 181.999 180.611 181.667 179.619 181.537C178.627 181.406 177.613 181.48 176.662 181.753C175.71 182.026 174.847 182.49 174.145 183.107C173.444 183.724 172.923 184.475 172.625 185.299C172.625 185.42 172.555 185.531 172.525 185.643L172.305 185.738C171.603 185.194 170.769 184.793 169.862 184.563C168.956 184.334 168.002 184.282 167.069 184.411C166.136 184.541 165.249 184.848 164.473 185.311C163.697 185.774 163.052 186.381 162.584 187.087C162.117 187.793 161.839 188.58 161.772 189.39C161.705 190.201 161.85 191.013 162.196 191.769C162.543 192.525 163.082 193.204 163.774 193.757C164.466 194.31 165.293 194.723 166.195 194.964C166.521 195.053 166.856 195.117 167.195 195.154L167.275 197.149L197.535 207.785L197.335 206.066C198.529 205.927 199.651 205.5 200.572 204.833C201.493 204.166 202.174 203.287 202.535 202.299Z" fill="black"/>
<path opacity="0.1" d="M195.465 219.377C194.818 220.482 193.752 221.364 192.443 221.879C191.134 222.393 189.661 222.508 188.265 222.206C188.232 222.979 188.004 223.736 187.595 224.425C187.223 225.063 186.707 225.632 186.079 226.099C185.451 226.566 184.721 226.922 183.933 227.146C183.144 227.37 182.312 227.459 181.484 227.407C180.655 227.354 179.847 227.162 179.105 226.841C178.179 226.438 177.379 225.848 176.775 225.121C176.068 226.266 174.908 227.155 173.505 227.629C172.103 228.103 170.549 228.13 169.125 227.705C167.701 227.281 166.5 226.433 165.739 225.314C164.978 224.195 164.707 222.88 164.975 221.604C164.279 221.522 163.604 221.342 162.975 221.071C161.479 220.424 160.342 219.292 159.815 217.925C159.288 216.558 159.414 215.066 160.165 213.779L160.365 213.461L160.285 213.263C159.37 213.239 158.472 213.042 157.655 212.687C156.153 212.032 155.014 210.891 154.49 209.515C153.966 208.139 154.099 206.64 154.86 205.348C155.622 204.056 156.948 203.077 158.549 202.626C160.15 202.175 161.893 202.29 163.395 202.944C163.691 203.072 163.975 203.218 164.245 203.383L165.905 201.998L196.345 212.463L194.815 213.581C195.552 214.395 196.004 215.372 196.119 216.398C196.234 217.424 196.007 218.457 195.465 219.377Z" fill="black"/>
<path opacity="0.1" d="M176.885 190.596L169.535 211.079C168.993 212.581 169.139 214.204 169.944 215.616C170.75 217.028 172.152 218.121 173.865 218.672C174.776 218.963 175.747 219.092 176.717 219.05C177.688 219.007 178.638 218.796 179.511 218.427C180.383 218.059 181.159 217.541 181.791 216.906C182.422 216.271 182.897 215.532 183.185 214.734L190.535 194.242C190.816 193.447 190.907 192.612 190.802 191.786C190.696 190.96 190.397 190.161 189.922 189.437C189.447 188.714 188.807 188.081 188.039 187.576C187.271 187.072 186.392 186.707 185.455 186.503C183.689 186.116 181.818 186.324 180.224 187.085C178.631 187.846 177.436 189.102 176.885 190.596Z" fill="black"/>
<path d="M177.205 191.843L170.535 210.21C170.046 211.557 170.177 213.013 170.901 214.279C171.625 215.545 172.887 216.523 174.425 217.012C175.242 217.272 176.112 217.387 176.981 217.348C177.851 217.31 178.703 217.12 179.484 216.789C180.265 216.458 180.96 215.994 181.526 215.425C182.092 214.856 182.517 214.193 182.775 213.478L189.405 195.102C189.662 194.386 189.748 193.633 189.655 192.888C189.563 192.143 189.296 191.422 188.869 190.769C188.443 190.116 187.866 189.544 187.174 189.088C186.482 188.633 185.69 188.303 184.845 188.12C183.26 187.79 181.588 187.991 180.169 188.683C178.75 189.374 177.69 190.504 177.205 191.843Z" fill="#3F3D56"/>
<path d="M384.025 264.144C387.025 259.406 383.625 253.593 379.745 249.371C375.865 245.148 371.125 240.772 371.225 235.363C371.375 227.624 380.925 223.058 388.555 218.947C394.221 215.906 399.445 212.295 404.115 208.19C406.076 206.614 407.695 204.751 408.895 202.687C410.475 199.66 410.435 196.22 410.335 192.91C410.009 181.869 409.372 170.836 408.425 159.812" stroke="#3F3D56" stroke-width="4" stroke-miterlimit="10"/>
<path d="M422.935 159.21C422.829 157.189 422.132 155.223 420.908 153.494C419.685 151.766 417.975 150.331 415.935 149.321L412.795 154.67L412.895 148.195C411.393 147.816 409.829 147.653 408.265 147.713C405.503 147.831 402.844 148.649 400.622 150.066C398.4 151.482 396.716 153.432 395.782 155.67C394.848 157.908 394.705 160.334 395.373 162.642C396.04 164.95 397.487 167.036 399.532 168.637C401.576 170.238 404.127 171.283 406.861 171.639C409.595 171.996 412.391 171.648 414.896 170.639C417.4 169.631 419.501 168.007 420.934 165.973C422.366 163.939 423.066 161.586 422.945 159.21H422.935Z" fill="#57B793"/>
<path d="M397.905 240.891C396.433 243.345 394.025 245.289 391.084 246.397C388.144 247.506 384.85 247.711 381.754 246.98C378.658 246.248 375.948 244.624 374.079 242.379C372.211 240.134 371.296 237.404 371.489 234.649C371.682 231.893 372.97 229.278 375.139 227.241C377.307 225.205 380.224 223.872 383.399 223.465C386.575 223.058 389.817 223.602 392.581 225.005C395.346 226.409 397.466 228.587 398.585 231.175L389.815 237.34L399.465 235.423C399.455 237.326 398.921 239.2 397.905 240.891Z" fill="#57B793"/>
<path d="M390.975 217.46C387.49 217.668 384.039 216.749 381.301 214.881C378.564 213.014 376.738 210.333 376.181 207.367C375.625 204.4 376.379 201.362 378.295 198.849C380.211 196.337 383.15 194.531 386.535 193.786L386.465 198.757L389.635 193.348C391.479 193.267 393.323 193.5 395.062 194.035C396.801 194.569 398.399 195.394 399.765 196.462C401.132 197.53 402.239 198.819 403.023 200.257C403.807 201.694 404.253 203.25 404.335 204.836C404.418 206.229 404.214 207.623 403.735 208.955C402.89 211.332 401.209 213.426 398.924 214.948C396.64 216.471 393.863 217.348 390.975 217.46Z" fill="#57B793"/>
<path d="M425.045 197.966C422.891 198.034 420.747 197.673 418.782 196.912C416.816 196.15 415.081 195.009 413.713 193.577C412.345 192.144 411.379 190.46 410.893 188.654C410.406 186.848 410.411 184.97 410.907 183.166C411.402 181.362 412.376 179.681 413.752 178.253C415.127 176.826 416.868 175.691 418.837 174.937C420.807 174.183 422.952 173.831 425.106 173.907C427.26 173.983 429.364 174.486 431.255 175.376L428.775 181.223L433.875 177.01C436.608 179.162 438.237 182.159 438.405 185.342C438.472 186.46 438.354 187.581 438.055 188.67C437.362 191.228 435.716 193.52 433.367 195.198C431.018 196.877 428.096 197.848 425.045 197.966Z" fill="#57B793"/>
<path opacity="0.1" d="M421.045 162.426C417.805 162.727 414.655 163.596 411.405 163.768C408.155 163.939 404.585 163.277 402.535 161.102C401.425 159.932 400.865 158.453 399.935 157.172C399.047 155.982 397.831 154.998 396.395 154.309C395.549 155.831 395.083 157.489 395.03 159.176C394.976 160.862 395.336 162.54 396.085 164.099C396.834 165.659 397.956 167.065 399.378 168.228C400.8 169.391 402.49 170.283 404.339 170.848C406.188 171.413 408.154 171.637 410.111 171.506C412.067 171.375 413.969 170.892 415.695 170.088C417.42 169.285 418.929 168.178 420.125 166.84C421.321 165.502 422.176 163.963 422.635 162.323C422.109 162.34 421.579 162.374 421.045 162.426Z" fill="black"/>
<path opacity="0.1" d="M425.045 197.965C422.629 198.058 420.227 197.614 418.069 196.674C415.912 195.735 414.073 194.333 412.731 192.603C411.388 190.874 410.587 188.876 410.406 186.802C410.225 184.729 410.669 182.65 411.695 180.768C412.813 181.402 413.778 182.217 414.535 183.167C415.535 184.465 416.145 185.97 417.325 187.157C419.505 189.367 423.235 190.089 426.625 189.96C430.015 189.831 433.285 188.997 436.625 188.73C437.095 188.73 437.625 188.67 438.045 188.661C437.355 191.219 435.711 193.513 433.364 195.192C431.017 196.872 428.096 197.846 425.045 197.965Z" fill="black"/>
<path opacity="0.1" d="M390.975 217.46C388.579 217.561 386.193 217.131 384.045 216.211C381.898 215.291 380.061 213.912 378.712 212.206C377.362 210.5 376.546 208.525 376.34 206.469C376.134 204.414 376.545 202.348 377.535 200.468C378.702 201.12 379.719 201.95 380.535 202.919C381.625 204.243 382.305 205.774 383.535 206.995C385.905 209.256 389.885 210.056 393.475 209.987C397.065 209.919 400.295 209.188 403.745 208.955C402.899 211.334 401.217 213.428 398.93 214.951C396.644 216.474 393.865 217.35 390.975 217.46Z" fill="black"/>
<path opacity="0.1" d="M397.905 240.892C396.387 243.808 393.583 246.087 390.111 247.227C386.639 248.366 382.782 248.272 379.39 246.967C375.998 245.661 373.348 243.25 372.023 240.264C370.698 237.279 370.807 233.963 372.325 231.046C373.479 231.699 374.513 232.496 375.395 233.41C376.735 234.803 377.615 236.394 379.155 237.71C382.025 240.135 386.655 241.15 390.785 241.227C393.164 241.237 395.542 241.125 397.905 240.892Z" fill="black"/>
<path d="M362.855 258.683C362.855 258.683 373.935 258.391 377.275 256.344C380.615 254.298 394.275 251.864 395.145 255.14C396.015 258.417 411.785 271.478 399.285 271.53C386.785 271.581 370.225 269.862 366.895 268.09C363.565 266.319 362.855 258.683 362.855 258.683Z" fill="#656380"/>
<path opacity="0.2" d="M399.535 270.395C387.025 270.481 370.475 268.675 367.145 266.955C364.605 265.622 363.595 260.859 363.255 258.657H362.885C362.885 258.657 363.585 266.345 366.885 268.116C370.185 269.887 386.765 271.616 399.275 271.556C402.885 271.556 404.125 270.429 404.065 268.795C403.535 269.758 402.195 270.369 399.535 270.395Z" fill="black" fill-opacity="0.16"/>
</svg>
